<svg width="166" height="166" viewBox="0 0 166 166" fill="none" xmlns="http://www.w3.org/2000/svg">
<path d="M161 85.8811C151.05 82.7811 139.46 84.1911 131.67 74.5811C131.52 84.7811 138.47 92.3111 148.74 93.6811C151.21 94.0111 153.69 94.2911 156.17 94.6011C165.56 95.7611 165.56 95.7611 163.06 105.031C160.16 115.781 155.16 125.461 148.37 134.251C146.57 136.581 145.24 137.561 143.75 133.951C140.44 125.921 131.96 124.141 125.83 119.511C124.6 118.581 123.07 120.891 123.53 123.511C124.32 127.961 127.03 131.331 130.06 134.511C132.44 137.011 135.33 139.181 135.96 142.921L136.04 142.841C129.23 135.601 119.83 130.371 118.24 118.961C114 124.951 113.85 132.701 117.89 138.661C119.37 140.841 121.21 142.851 123.16 144.631C131.06 151.851 131.1 151.811 121.26 156.901C113.83 160.741 105.97 163.331 97.78 164.951C94.59 165.581 92.23 165.511 92.86 161.031C93.88 153.851 88.32 149.161 85.6 143.431C84.57 141.281 83.47 143.501 82.87 144.431C80.65 147.871 81.74 151.491 82.49 155.071C83.03 157.621 84.6 159.991 83.49 164.051C81.55 155.311 76.67 148.341 80.34 139.421C72.01 145.101 70.22 151.281 74.05 161.231C75.6 165.261 74.53 165.781 70.81 165.221C59.13 163.471 48.29 159.581 38.39 153.131C37.01 152.231 35.1 151.381 37.81 149.801C46.53 144.691 46.62 135.071 49.62 127.011C50.67 124.191 47.99 125.071 46.9 125.291C42.71 126.151 40.03 129.141 37.69 132.451C35.87 135.011 34.1 137.601 32.3 140.181C31.49 140.551 31.26 140.321 31.63 139.511C35.86 131.681 38.97 122.931 48.66 119.411C38.78 115.831 30.01 120.111 24.54 130.851C20.58 138.621 20.58 138.621 15.38 131.301C6.18001 118.371 1.67 105.741 0.25 87.5611C14.22 102.831 28.03 96.0311 42.07 88.8511C33.81 77.8311 21.8 86.8111 12.2 83.2811C23.8 83.3211 35.49 76.3611 46.97 83.9111L46.91 83.9611C43.23 73.2511 33.17 68.0011 20.86 70.4611C15.66 71.5011 10.52 72.8411 5.33 73.8811C2.48 74.4511 0.220005 73.8711 0.880005 70.1411C4.81 47.9211 15.67 29.9911 34.45 15.8011C34.04 21.9111 32.11 26.8211 32.04 32.0911C31.85 45.2611 38 54.1311 49.41 59.9011C52.37 61.3911 55.22 63.1111 58.2 64.5511C59.59 65.2211 60.57 68.0011 62.08 66.5911C63.26 65.4811 63.62 62.8611 63.41 61.0211C62.79 55.4811 59.5 51.2811 55.77 47.3611C52.13 43.5411 47.7 40.3411 45.75 35.1311C45.92 34.9811 46.08 34.8311 46.25 34.6811C51.29 39.5111 56.32 44.3411 61.36 49.1811C66.58 54.1911 69.72 60.2511 70.41 67.6511C77.16 59.1311 76.16 46.1111 68.4 36.9311C64.04 31.7711 58.18 28.4211 53.27 23.9511C40.8 12.6211 41.47 9.21109 57.26 4.18109C70.33 0.0110869 83.65 -0.95891 97.17 1.37109C98.52 1.60109 100.6 0.921088 101.02 2.79109C101.36 4.31109 99.45 4.75109 98.42 5.42109C90.19 10.7311 89.29 20.6111 84.36 27.9711C83.32 29.5211 85.34 29.5711 86.42 29.6711C93.35 30.3611 97.37 25.7511 101.46 21.3311C104.36 18.1911 106.56 14.2811 110.93 12.7711L111.08 12.9311C107 17.9611 103.03 23.0811 98.82 28.0011C94.92 32.5411 90.1 35.6611 83.88 36.3211C92.23 41.7511 102.76 40.1911 110.61 32.6511C115.73 27.7411 118.32 21.0211 123.07 15.8211C125.56 13.0911 127.42 12.7611 130.5 15.0011C149.36 28.6511 160.74 46.9511 165.03 69.7411C165.33 71.3211 165.62 73.6311 164.77 74.5311C163.31 76.0811 161.91 73.8111 160.62 73.1111C153.49 69.2211 145.87 71.7511 138.5 71.3411C136.34 71.2211 137.48 73.2811 138.02 74.3511C140.38 79.0611 145.05 80.1811 149.54 81.3911C153.52 82.4811 157.66 83.1011 161 85.8811Z" fill="#5F5F5F"/>
<path d="M45.11 32.7395C44.91 32.5795 44.71 32.4195 44.51 32.2695C44.62 32.2995 44.78 32.2995 44.85 32.3795C44.95 32.4895 44.98 32.6595 45.04 32.7995L45.11 32.7395Z" fill="#5F5F5F"/>
<path d="M45.72 35.1322C45.51 34.3322 45.31 33.5422 45.1 32.7422L45.03 32.8022C45.42 33.4322 45.82 34.0522 46.21 34.6822C46.05 34.8422 45.89 34.9922 45.72 35.1322Z" fill="#5F5F5F"/>
<path d="M29.0099 142.922C29.3299 142.562 29.6499 142.212 29.9599 141.852L30.1899 142.112C29.7699 142.362 29.3599 142.612 28.9399 142.852C28.9499 142.852 29.0099 142.922 29.0099 142.922Z" fill="#5F5F5F"/>
<path d="M31.35 141.252C30.96 141.532 30.57 141.822 30.19 142.102L29.96 141.842C30.22 141.442 30.49 141.042 30.75 140.632C31.47 140.342 31.67 140.542 31.35 141.252Z" fill="#5F5F5F"/>
<path d="M110.9 12.7806C111.1 12.6506 111.3 12.5206 111.49 12.3906C111.34 12.5706 111.2 12.7506 111.05 12.9406C111.06 12.9406 110.9 12.7806 110.9 12.7806Z" fill="#5F5F5F"/>
<path d="M30.75 140.64C31.04 140.26 31.32 139.88 31.61 139.5C31.83 139.72 32.06 139.95 32.28 140.17C31.97 140.53 31.66 140.89 31.35 141.25C31.15 141.05 30.95 140.85 30.75 140.64Z" fill="#5F5F5F"/>
<path d="M135.95 142.912L136.21 143.102L136.03 142.832L135.95 142.912Z" fill="#5F5F5F"/>
<path d="M119.94 91.8601C116.09 107.29 108.06 120 94.86 129.02C85.39 135.5 72.3 133.27 63.06 124.01C57.81 118.74 54.05 112.5 51.93 105.34C49.63 97.5501 51.83 91.6401 58.62 87.2901C63.37 84.2501 68.75 82.2201 73.02 78.4001C79.79 72.3601 82.98 64.3201 85.05 55.8601C86.45 50.1501 89.55 47.4901 95.36 46.9801C101.32 46.4501 107.06 45.0301 112.06 41.1801C118.43 36.2601 125.4 38.7401 126.42 46.8201C128.04 59.6801 125.91 72.4801 122.01 84.6801C120.38 89.7801 114.39 92.9501 112.62 98.5701L112.84 98.9101L112.6 99.2301L112.79 99.5801L112.82 99.1801L113.21 99.0901C115.58 96.8001 116.92 93.5401 120.01 91.9401L119.94 91.8601Z" fill="white"/>
<path d="M136.12 108.492C136.31 105.202 137.87 103.082 140.99 103.162C145.96 103.302 146.73 107.512 147.6 111.172C148.22 113.772 146.02 113.552 144.4 113.542C140.58 113.522 137.07 112.932 136.12 108.492Z" fill="white"/>
<path d="M25.1 113.661C23.67 113.041 20.12 114.581 20.61 111.331C21.16 107.721 22.73 103.711 27.56 103.611C30.43 103.551 32.3 105.501 32.21 108.321C32.09 112.521 29.17 113.771 25.1 113.661Z" fill="white"/>
<path d="M140.62 48.8906C143.39 49.1906 147.93 50.2906 147.81 52.4206C147.63 55.5606 144.23 58.3506 140.4 58.6206C137.31 58.8406 135.33 56.9706 135.28 53.8006C135.23 50.5506 137.24 49.0706 140.62 48.8906Z" fill="white"/>
<path d="M66.2 18.6529C67.33 16.3529 67.04 11.7129 70.21 12.0529C73.25 12.3829 76.06 15.7029 75.95 19.7629C75.87 22.6929 74.0499 24.5429 71.2899 24.5129C67.9699 24.4729 66.46 22.1129 66.2 18.6529Z" fill="white"/>
<path d="M23.1799 52.1226C27.3599 51.8326 29.8399 53.0627 29.9799 56.8827C30.0799 59.7727 28.5699 61.5727 25.5099 61.7127C22.5999 61.8427 17.32 56.8827 18.05 54.2727C18.83 51.4627 21.7299 52.3526 23.1799 52.1226Z" fill="white"/>
<path d="M62.1101 136.07C64.9801 136.78 67.1001 138.23 66.8401 141.46C66.5201 145.48 63.2701 148.31 60.2401 148.53C57.3201 148.75 57.3401 144.45 57.1401 141.83C56.8801 138.46 59.0101 136.78 62.1101 136.07Z" fill="white"/>
<path d="M108.79 143.161C107.98 145.541 107.91 150.071 105.53 150.011C102.35 149.931 99.3 146.901 98.93 142.951C98.63 139.731 100.54 137.921 103.69 137.861C106.95 137.791 108.34 139.921 108.79 143.161Z" fill="white"/>
<path d="M120.02 91.9395L120.14 91.7695L119.94 91.8595L120.02 91.9395Z" fill="white"/>
<path d="M46.8899 83.9613L46.9499 83.9113C46.9399 83.9013 46.8899 83.9613 46.8899 83.9613Z" fill="white"/>
<path d="M123.19 62.5196C115 57.3896 107.87 58.6796 99.96 60.7396C89.54 63.4496 91.07 72.0896 88.65 79.0996C86.04 71.0796 89.77 56.7996 94.82 55.0096C107.38 50.5496 119.7 53.2996 123.19 62.5196Z" fill="#5F5F5F"/>
<path d="M100.05 70.8822C100.69 70.5422 101.33 70.2022 101.97 69.8622C103.59 68.8222 105.22 68.9722 106.85 69.7922C107.23 70.1122 107.67 70.1322 108.13 69.9922C107.68 70.1222 107.24 70.1122 106.85 69.7922C105.21 68.8722 103.61 68.8122 102.05 69.9422C100.1 66.0922 100.1 66.0922 96.8401 67.0722C98.9901 63.6722 101.03 62.5822 104.65 63.3222C107.23 63.8422 109.77 64.6222 112.28 65.4522C113.89 65.9822 116.52 65.8622 116.59 67.8622C116.67 69.9822 114.25 70.9222 112.39 71.5522C108.23 72.9522 104.06 73.3622 100.1 70.8122L100.05 70.8822Z" fill="#5F5F5F"/>
<path d="M100.1 70.8125C98.69 70.7825 97.18 71.1525 95.52 69.3125C97.51 69.7125 98.94 69.6325 100.04 70.8825C100.05 70.8825 100.1 70.8125 100.1 70.8125Z" fill="#5F5F5F"/>
<path d="M113.22 99.0903C112.8 99.6703 112.38 100.26 111.97 100.84L112.05 100.93C112.25 100.14 112.44 99.3603 112.64 98.5703C112.83 98.7403 113.03 98.9103 113.22 99.0903Z" fill="#5F5F5F"/>
<path d="M111.97 100.84C111.85 101.09 111.73 101.34 111.61 101.59C111.02 100.88 111.66 100.98 112.05 100.93L111.97 100.84Z" fill="#5F5F5F"/>
<path d="M92.0901 94.8626L91.8201 94.7227L92.0201 94.9326L92.0901 94.8626Z" fill="#5F5F5F"/>
<path d="M106.99 69.9018C108.39 68.3518 109.38 65.8418 112.21 67.4618C112.62 67.7018 113.06 68.7818 112.97 68.8618C111.22 70.3518 109.4 71.8018 107.06 69.8218L106.99 69.9018Z" fill="white"/>
<path d="M102.05 69.9396C102.25 68.0596 101.71 65.5596 104.8 65.7096C107.62 65.8496 106.7 68.2596 106.99 69.8896L107.07 69.7996C105.38 70.7496 103.68 70.3996 101.98 69.8496C101.97 69.8596 102.05 69.9396 102.05 69.9396Z" fill="white"/>
<path d="M104.22 69.5721C103.77 68.8621 103.48 68.392 103.18 67.922C103.51 67.782 103.9 67.4721 104.17 67.5521C104.58 67.6721 104.9 68.0721 105.26 68.3521C104.99 68.6721 104.72 68.9921 104.22 69.5721Z" fill="#5F5F5F"/>
<path d="M91.9801 97.7527C91.6501 98.2027 91.1601 98.4627 90.5701 98.4927L90.5201 98.5027L90.4601 98.4927C89.1901 98.3827 87.6401 98.3227 87.1401 98.3827C86.7201 98.8627 85.5601 100.163 83.8901 100.223H83.7701C83.7301 100.223 83.6801 100.223 83.6501 100.213C83.6101 100.223 83.5601 100.223 83.5301 100.223H83.4101C81.7501 100.163 80.5801 98.8627 80.1601 98.3827C79.6601 98.3227 78.1001 98.3827 76.8401 98.4927L76.7801 98.5027L76.7301 98.4927C76.1301 98.4627 75.6501 98.2027 75.3201 97.7527C74.6001 96.7627 74.9201 95.2227 75.0001 94.9227C75.0001 94.9227 76.3301 91.0027 76.5101 95.2927C76.4001 95.7527 76.3601 96.5527 76.5701 96.8427C76.6001 96.8727 76.6401 96.9327 76.7801 96.9427C80.6101 96.6127 80.9401 96.9527 81.1701 97.1727C81.2001 97.2027 81.2601 97.2627 81.3201 97.3327C81.6301 97.6827 82.4501 98.6327 83.4801 98.6727C83.5401 98.6727 83.6001 98.6727 83.6701 98.6627C83.7301 98.6727 83.7901 98.6727 83.8601 98.6727C84.8901 98.6327 85.7101 97.6827 86.0201 97.3327C86.0801 97.2527 86.1401 97.2027 86.1701 97.1727C86.4001 96.9427 86.7301 96.6127 90.5601 96.9427C90.7001 96.9227 90.7401 96.8727 90.7701 96.8427C90.9801 96.5527 90.9401 95.7527 90.8301 95.2927C91.0101 91.0027 92.3401 94.9227 92.3401 94.9227C92.3801 95.2227 92.7001 96.7727 91.9801 97.7527Z" fill="#5F5F5F"/>
<path d="M84.21 110.78C80.44 109.95 76.91 109.18 73.39 108.37C73.16 108.32 73 108 72.8 107.8C73.08 107.66 73.3401 107.47 73.6301 107.4C74.9901 107.05 76.46 106.95 77.68 106.34C79.35 105.5 80.7 104.83 82.44 106.32C83.02 106.81 84.65 106.8 85.33 106.33C88.99 103.8 91.8201 107.59 95.1301 107.43C95.2601 107.42 95.45 107.82 95.55 108.06C95.57 108.12 95.35 108.36 95.22 108.39C91.52 109.2 87.83 110 84.21 110.78Z" fill="#5F5F5F"/>
<path d="M84.0299 113.522C83.3499 113.522 82.5799 113.722 82.0099 113.472C81.1499 113.102 80.4299 112.412 79.6499 111.862C80.5399 111.982 81.3699 111.922 82.3099 112.332C84.7799 113.402 87.0499 112.182 89.2499 111.062C89.4899 110.942 89.9599 111.252 90.3199 111.362C90.1799 111.552 90.0599 111.762 89.8999 111.932C89.7199 112.142 89.5499 112.432 89.3199 112.492C87.5799 112.932 85.8299 113.332 84.0899 113.742C84.0699 113.682 84.0499 113.602 84.0299 113.522Z" fill="#5F5F5F"/>
<path d="M77.96 110.781C77.96 110.781 82.35 113.371 87.32 112.011L86.86 112.401L84.99 113.271L83.94 113.021L84.65 113.631C84.64 113.631 81.1 114.741 77.96 110.781Z" fill="#5F5F5F"/>
</svg>
