<?xml version="1.0" encoding="UTF-8"?><svg id="Layer_1" xmlns="http://www.w3.org/2000/svg" xmlns:xlink="http://www.w3.org/1999/xlink" viewBox="0 0 316.32 316.11"><defs><style>.cls-1{fill:#fff;}.cls-2{clip-path:url(#clippath);}.cls-3{fill:none;}</style><clipPath id="clippath"><rect class="cls-3" width="316.32" height="316.11"/></clipPath></defs><g class="cls-2"><path d="m307.25,163.89c-18.99-5.91-41.1-3.23-55.97-21.57-.29,19.47,12.97,33.84,32.57,36.45,4.71.63,9.45,1.17,14.18,1.76q17.92,2.22,13.15,19.9c-5.53,20.52-15.08,38.99-28.04,55.76-3.43,4.45-5.97,6.31-8.82-.57-6.31-15.32-22.5-18.72-34.2-27.55-2.35-1.78-5.26,2.63-4.39,7.63,1.51,8.49,6.68,14.92,12.46,20.99,4.54,4.77,10.06,8.91,11.26,16.05l.16-.15c-13-13.82-30.93-23.8-33.97-45.57-8.09,11.43-8.38,26.22-.67,37.59,2.82,4.16,6.34,8,10.06,11.39,15.07,13.78,15.15,13.7-3.63,23.42-14.18,7.32-29.18,12.27-44.81,15.36-6.09,1.2-10.6,1.07-9.39-7.48,1.95-13.7-8.67-22.65-13.86-33.59-1.97-4.1-4.06.14-5.21,1.91-4.24,6.56-2.16,13.47-.73,20.3,1.03,4.87,4.03,9.39,1.91,17.14-3.7-16.68-13.01-29.98-6.01-47-15.9,10.84-19.31,22.63-12,41.62,2.95,7.69.92,8.68-6.18,7.62-22.29-3.34-42.98-10.76-61.87-23.07-2.63-1.72-6.28-3.34-1.1-6.36,16.64-9.75,16.81-28.11,22.53-43.49,2-5.38-3.11-3.7-5.19-3.28-8,1.64-13.11,7.34-17.57,13.67-3.47,4.88-6.86,9.83-10.29,14.75-1.54.7-1.98.27-1.28-1.28,8.07-14.94,14.01-31.64,32.5-38.36-18.86-6.84-35.59,1.34-46.03,21.83q-7.56,14.83-17.48.86C11.8,225.89,3.19,201.79.48,167.1c26.66,29.14,53.02,16.17,79.81,2.46-15.76-21.03-38.68-3.89-57-10.63,22.14.08,44.44-13.21,66.35,1.2l-.11.09c-7.02-20.44-26.22-30.46-49.71-25.76-9.92,1.98-19.73,4.54-29.63,6.52-5.44,1.09-9.75-.02-8.49-7.14C9.18,91.45,29.9,57.24,65.75,30.15c-.79,11.66-4.47,21.03-4.6,31.09-.36,25.13,11.37,42.06,33.15,53.07,5.65,2.84,11.09,6.12,16.78,8.87,2.65,1.27,4.52,6.58,7.4,3.89,2.25-2.12,2.94-7.12,2.54-10.63-1.18-10.58-7.46-18.59-14.58-26.07-6.94-7.29-15.4-13.39-19.12-23.34.33-.29.63-.57.96-.86,9.62,9.22,19.22,18.44,28.83,27.67,9.96,9.56,15.95,21.12,17.27,35.25,12.88-16.26,10.98-41.1-3.83-58.62-8.32-9.85-19.5-16.24-28.88-24.77-23.8-21.62-22.52-28.13,7.62-37.73C134.22.02,159.64-1.83,185.44,2.62c2.57.44,6.54-.86,7.34,2.71.65,2.9-3,3.74-4.96,5.02-15.7,10.13-17.42,28.99-26.83,43.03-1.98,2.95,1.87,3.05,3.93,3.24,13.22,1.32,20.9-7.48,28.7-15.91,5.53-5.99,9.73-13.46,18.07-16.34l.29.31c-7.79,9.6-15.36,19.37-23.4,28.76-7.44,8.66-16.64,14.62-28.51,15.88,15.93,10.36,36.03,7.39,51.01-7,9.77-9.37,14.72-22.2,23.78-32.12,4.75-5.21,8.3-5.84,14.17-1.57,35.99,26.05,57.71,60.98,65.9,104.47.57,3.01,1.13,7.42-.49,9.14-2.79,2.96-5.46-1.37-7.92-2.71-13.6-7.42-28.15-2.6-42.21-3.38-4.12-.23-1.95,3.7-.92,5.74,4.5,8.99,13.42,11.13,21.99,13.44,7.59,2.08,15.49,3.26,21.87,8.57Z"/></g><path d="m86.09,62.48c-.38-.31-.76-.61-1.14-.89.21.06.51.06.65.21.19.21.25.54.36.8l.14-.11Z"/><path d="m87.25,67.05c-.4-1.53-.78-3.03-1.18-4.56l-.14.11c.74,1.2,1.51,2.39,2.25,3.59-.3.3-.61.59-.94.86Z"/><path d="m55.36,272.74c.61-.69,1.22-1.35,1.82-2.04l.44.49c-.8.48-1.58.96-2.39,1.41.02,0,.14.13.14.13Z"/><path d="m59.83,269.56c-.74.53-1.49,1.09-2.22,1.62l-.44-.49c.49-.76,1.01-1.52,1.5-2.31,1.38-.55,1.76-.17,1.15,1.19Z"/><path d="m211.64,24.39c.38-.25.76-.5,1.12-.74-.29.34-.55.69-.84,1.05.02,0-.29-.3-.29-.3Z"/><path d="m58.68,268.39c.56-.72,1.09-1.45,1.64-2.17l1.28,1.28c-.59.69-1.19,1.37-1.77,2.06-.38-.38-.76-.76-1.15-1.17Z"/><path d="m259.44,272.73l.49.36-.34-.51-.15.16Z"/><path class="cls-1" d="m228.89,175.3c-7.34,29.45-22.67,53.7-47.86,70.92-18.07,12.36-43.05,8.11-60.68-9.56-10.02-10.06-17.2-21.97-21.24-35.63-4.39-14.87-.19-26.14,12.77-34.45,9.07-5.8,19.33-9.68,27.48-16.97,12.92-11.53,19.01-26.87,22.96-43.01,2.67-10.9,8.59-15.97,19.68-16.95,11.37-1.01,22.33-3.72,31.87-11.06,12.16-9.39,25.46-4.66,27.41,10.76,3.09,24.54-.98,48.97-8.42,72.25-3.11,9.73-14.54,15.78-17.92,26.51l.42.65-.46.61.36.67.06-.76.74-.17c4.53-4.37,7.08-10.59,12.98-13.64l-.14-.16Z"/><path class="cls-1" d="m259.77,207.04c.36-6.28,3.34-10.33,9.3-10.17,9.48.27,10.95,8.3,12.61,15.28,1.18,4.96-3.02,4.54-6.11,4.53-7.29-.04-13.99-1.17-15.8-9.64Z"/><path class="cls-1" d="m47.9,216.9c-2.73-1.18-9.5,1.76-8.57-4.44,1.05-6.89,4.05-14.54,13.26-14.74,5.48-.11,9.05,3.61,8.87,8.99-.23,8.02-5.8,10.4-13.57,10.19Z"/><path class="cls-1" d="m268.35,93.3c5.29.57,13.95,2.67,13.72,6.74-.34,5.99-6.84,11.32-14.14,11.83-5.89.42-9.68-3.15-9.77-9.2-.09-6.21,3.74-9.03,10.19-9.37Z"/><path class="cls-1" d="m126.34,35.6c2.15-4.39,1.6-13.24,7.65-12.59,5.8.63,11.16,6.97,10.95,14.71-.16,5.59-3.63,9.12-8.9,9.07-6.34-.08-9.22-4.58-9.71-11.18Z"/><path class="cls-1" d="m44.24,99.47c7.98-.55,12.71,1.79,12.98,9.08.19,5.52-2.69,8.95-8.53,9.22-5.56.25-15.63-9.22-14.24-14.2,1.49-5.36,7.02-3.67,9.79-4.1Z"/><path class="cls-1" d="m118.53,259.67c5.48,1.36,9.52,4.13,9.03,10.29-.61,7.67-6.81,13.07-12.6,13.49-5.57.42-5.53-7.79-5.91-12.79-.49-6.43,3.57-9.64,9.48-11Z"/><path class="cls-1" d="m207.61,273.2c-1.54,4.54-1.68,13.19-6.22,13.07-6.07-.15-11.89-5.94-12.6-13.47-.57-6.14,3.07-9.6,9.09-9.71,6.22-.14,8.87,3.93,9.73,10.11Z"/><path class="cls-1" d="m229.04,175.45l.23-.32-.38.17.16.15Z"/><path class="cls-1" d="m89.49,160.23l.11-.1s-.11.1-.11.1Z"/><path d="m235.09,119.31c-15.63-9.79-29.24-7.32-44.33-3.4-19.88,5.18-16.96,21.66-21.58,35.04-4.98-15.3,2.14-42.56,11.78-45.97,23.96-8.51,47.48-3.26,54.14,14.33Z"/><path d="m190.93,135.27c1.22-.65,2.44-1.3,3.67-1.95,3.09-1.98,6.2-1.7,9.31-.14.72.61,1.57.65,2.44.38-.86.24-1.7.23-2.44-.38-3.13-1.75-6.18-1.87-9.16.29q-3.72-7.34-9.94-5.47c4.1-6.49,8-8.57,14.9-7.16,4.92.99,9.77,2.48,14.56,4.06,3.07,1.01,8.09.79,8.22,4.6.16,4.05-4.46,5.84-8.02,7.04-7.94,2.67-15.9,3.45-23.45-1.41l-.1.13Z"/><path d="m191.03,135.14c-2.69-.06-5.58.65-8.74-2.87,3.8.76,6.53.61,8.63,3,.02,0,.11-.13.11-.13Z"/><path d="m216.07,189.1c-.8,1.11-1.6,2.23-2.39,3.34l.16.17c.38-1.51.74-3,1.12-4.5.36.32.74.65,1.11.99Z"/><path d="m213.68,192.44c-.23.48-.46.95-.69,1.43-1.12-1.36.1-1.17.84-1.26l-.16-.17Z"/><path d="m175.74,181.03l-.51-.27.38.4.14-.14Z"/><path class="cls-1" d="m204.17,133.4c2.67-2.96,4.56-7.75,9.96-4.66.79.46,1.62,2.52,1.45,2.67-3.34,2.85-6.81,5.61-11.28,1.83l-.14.16Z"/><path class="cls-1" d="m194.75,133.47c.38-3.58-.65-8.35,5.25-8.07,5.38.27,3.63,4.86,4.18,7.97l.16-.17c-3.23,1.82-6.47,1.14-9.72.09-.02.02.14.17.14.17Z"/><path d="m198.89,132.77c-.86-1.36-1.41-2.25-1.98-3.15.63-.27,1.37-.86,1.89-.7.78.23,1.39.99,2.08,1.52-.51.61-1.03,1.22-1.99,2.33Z"/><path d="m175.53,186.55c-.63.86-1.57,1.36-2.69,1.41l-.09.02-.11-.02c-2.42-.21-5.38-.33-6.34-.21-.8.92-3.02,3.4-6.2,3.51h-.23c-.08,0-.17,0-.23-.02-.08.02-.17.02-.23.02h-.23c-3.17-.11-5.4-2.6-6.21-3.51-.95-.11-3.93,0-6.34.21l-.11.02-.09-.02c-1.14-.06-2.06-.56-2.69-1.41-1.37-1.89-.76-4.83-.61-5.4,0,0,2.54-7.48,2.88.71-.21.87-.29,2.4.11,2.95.06.06.14.17.4.19,7.31-.63,7.94.02,8.38.44.06.06.17.17.29.31.59.67,2.16,2.48,4.12,2.56.11,0,.23,0,.36-.02.11.02.23.02.36.02,1.97-.08,3.53-1.89,4.12-2.56.11-.15.23-.25.29-.31.44-.44,1.07-1.07,8.38-.44.27-.04.34-.14.4-.19.4-.55.32-2.08.11-2.95.34-8.19,2.88-.71,2.88-.71.07.57.69,3.53-.69,5.4Z"/><path d="m160.7,211.41c-7.19-1.58-13.93-3.05-20.65-4.6-.44-.09-.74-.7-1.13-1.09.54-.27,1.03-.63,1.59-.76,2.6-.67,5.4-.86,7.73-2.02,3.18-1.61,5.76-2.88,9.08-.04,1.11.94,4.22.92,5.51.02,6.99-4.83,12.39,2.4,18.7,2.1.25-.02.61.75.8,1.21.04.11-.38.57-.63.63-7.06,1.54-14.1,3.07-21.01,4.56Z"/><path d="m160.36,216.64c-1.3,0-2.77.38-3.85-.09-1.64-.71-3.02-2.02-4.5-3.07,1.7.23,3.28.11,5.08.9,4.71,2.04,9.05-.29,13.24-2.42.46-.23,1.36.36,2.04.57-.27.36-.5.76-.8,1.09-.34.4-.67.96-1.11,1.07-3.32.84-6.66,1.6-9.98,2.38-.04-.11-.08-.27-.11-.42Z"/><path d="m148.78,211.41s8.38,4.94,17.86,2.35l-.88.74-3.57,1.66-2-.47,1.36,1.16s-6.78,2.12-12.77-5.44Z"/></svg>